<?xml version="1.0" encoding="UTF-8"?>
<svg id="Layer_1" xmlns="http://www.w3.org/2000/svg" version="1.1" viewBox="0 0 512 512">
  <!-- Generator: Adobe Illustrator 29.5.1, SVG Export Plug-In . SVG Version: 2.1.0 Build 141)  -->
  <defs>
    <style>
      .st0 {
        fill: #4493f8;
      }
    </style>
  </defs>
  <path class="st0" d="M94.952,305.972L0,273.261v-34.522l94.952-32.711v19.077L6.812,254.637v2.727l88.14,29.531v19.077Z"/>
  <path class="st0" d="M161.51,359.58l-16.129-5,66.327-202.16,15.907,4.991-66.105,202.169Z"/>
  <path class="st0" d="M275.761,335.503v-112.671h17.719v19.087h2.727c6.96-14.844,19.077-22.266,36.343-22.266,13.023,0,23.394,4.058,31.121,12.154,7.727,8.106,11.581,20.26,11.581,36.463v67.233h-17.719v-63.6c0-11.812-2.643-20.676-7.949-26.583-5.296-5.906-12.487-8.855-21.573-8.855-10.602,0-19.013,3.669-25.215,11.018-6.211,7.348-9.317,17.146-9.317,29.411v58.609h-17.719Z"/>
  <path class="st0" d="M417.048,305.972v-19.077l88.131-29.531v-2.727l-88.131-29.531v-19.077l94.952,32.711v34.522l-94.952,32.711Z"/>
</svg>